<svg xmlns="http://www.w3.org/2000/svg" height="371.615pt" version="1.1" viewBox="1 1 371.615 371.615" width="371.615pt">
<g id="surface1">
<path d="M 229.398438 12.398438 L 155 12.398438 L 155 155 L 12.398438 155 L 12.398438 229.398438 L 155 229.398438 L 155 372 L 229.398438 372 L 229.398438 229.398438 L 372 229.398438 L 372 155 L 229.398438 155 Z M 229.398438 12.398438 " style=" stroke:none;fill-rule:nonzero;fill:rgb(50.196078%,46.27451%,30.196078%);fill-opacity:1;" />
<path d="M 223.199219 6.199219 L 148.800781 6.199219 L 148.800781 148.800781 L 6.199219 148.800781 L 6.199219 223.199219 L 148.800781 223.199219 L 148.800781 365.800781 L 223.199219 365.800781 L 223.199219 223.199219 L 365.800781 223.199219 L 365.800781 148.800781 L 223.199219 148.800781 Z M 223.199219 6.199219 " style=" stroke:none;fill-rule:nonzero;fill:rgb(100%,31.372549%,13.72549%);fill-opacity:1;" />
<path d="M 365.800781 142.601562 L 229.398438 142.601562 L 229.398438 6.199219 C 229.398438 2.777344 226.625 0 223.199219 0 L 148.796875 0 C 145.375 0 142.597656 2.777344 142.597656 6.199219 L 142.597656 142.601562 L 6.199219 142.601562 C 2.777344 142.601562 0 145.375 0 148.800781 L 0 223.203125 C 0 226.625 2.777344 229.402344 6.199219 229.402344 L 142.601562 229.402344 L 142.601562 365.800781 C 142.601562 369.226562 145.375 372.003906 148.800781 372.003906 L 223.203125 372.003906 C 226.625 372.003906 229.402344 369.226562 229.402344 365.800781 L 229.402344 229.398438 L 365.800781 229.398438 C 369.226562 229.398438 372.003906 226.625 372.003906 223.199219 L 372.003906 148.796875 C 372 145.375 369.222656 142.601562 365.800781 142.601562 Z M 359.601562 217 L 223.199219 217 C 219.777344 217 217 219.777344 217 223.199219 L 217 359.601562 L 155 359.601562 L 155 223.199219 C 155 219.777344 152.222656 217 148.800781 217 L 12.398438 217 L 12.398438 155 L 148.800781 155 C 152.222656 155 155 152.222656 155 148.800781 L 155 12.398438 L 217 12.398438 L 217 148.800781 C 217 152.222656 219.777344 155 223.199219 155 L 359.601562 155 Z M 359.601562 217 " style=" stroke:none;fill-rule:nonzero;fill:rgb(13.72549%,12.156863%,12.54902%);fill-opacity:1;" />
</g>
</svg>